<svg width="190" height="190" viewBox="0 0 190 190" fill="none" xmlns="http://www.w3.org/2000/svg">
<g>
<rect x="-5" y="90" width="45" height="10" rx="5" fill="black"/>
<rect x="150" y="90" width="45" height="10" rx="5" fill="black"/>
<path d="M125 95C125 90.4037 124.612 85.8525 123.858 81.6061C123.104 77.3597 121.999 73.5013 120.607 70.2513C119.214 67.0012 117.56 64.4231 115.74 62.6642C113.92 60.9053 111.97 60 110 60C108.03 60 106.08 60.9053 104.26 62.6642C102.44 64.4231 100.786 67.0012 99.3934 70.2513C98.0005 73.5013 96.8956 77.3597 96.1418 81.6061C95.388 85.8525 95 90.4037 95 95" stroke="black" stroke-width="10" stroke-linecap="round"/>
<path d="M155 95C155 90.4037 154.612 85.8525 153.858 81.6061C153.104 77.3597 151.999 73.5013 150.607 70.2513C149.214 67.0012 147.56 64.4231 145.74 62.6642C143.92 60.9053 141.97 60 140 60C138.03 60 136.08 60.9053 134.26 62.6642C132.44 64.4231 130.786 67.0012 129.393 70.2513C128.001 73.5013 126.896 77.3597 126.142 81.6061C125.388 85.8525 125 90.4037 125 95" stroke="black" stroke-width="10" stroke-linecap="round"/>
<path d="M95 95C95 90.4037 94.612 85.8525 93.8582 81.6061C93.1044 77.3597 91.9995 73.5013 90.6066 70.2513C89.2137 67.0012 87.5601 64.4231 85.7403 62.6642C83.9204 60.9053 81.9698 60 80 60C78.0302 60 76.0796 60.9053 74.2597 62.6642C72.4399 64.4231 70.7863 67.0012 69.3934 70.2513C68.0005 73.5013 66.8956 77.3597 66.1418 81.6061C65.388 85.8525 65 90.4037 65 95" stroke="black" stroke-width="10" stroke-linecap="round" stroke-linejoin="round"/>
<path d="M65 95C65 90.4037 64.612 85.8525 63.8582 81.6061C63.1044 77.3597 61.9995 73.5013 60.6066 70.2513C59.2137 67.0012 57.5601 64.4231 55.7403 62.6642C53.9204 60.9053 51.9698 60 50 60C48.0302 60 46.0796 60.9053 44.2597 62.6642C42.4399 64.4231 40.7863 67.0012 39.3934 70.2513C38.0005 73.5013 36.8956 77.3597 36.1418 81.6061C35.388 85.8525 35 90.4037 35 95" stroke="black" stroke-width="10" stroke-linecap="round"/>
</g>
</svg>
