<svg width="190" height="190" viewBox="0 0 190 190" fill="none" xmlns="http://www.w3.org/2000/svg">
<g>
<rect x="100" y="-5" width="60" height="10" rx="5" transform="rotate(90 100 -5)" fill="black"/>
<rect x="100" y="135" width="60" height="10" rx="5" transform="rotate(90 100 135)" fill="black"/>
<circle cx="95" cy="95" r="40" stroke="black" stroke-width="10"/>
<rect x="92" y="120" width="50" height="6" rx="3" transform="rotate(-90 92 120)" fill="black"/>
<rect x="106.602" y="88.8448" width="22.0649" height="6" rx="3" transform="rotate(-135 106.602 88.8448)" fill="black"/>
<rect x="79" y="84.6022" width="22.0649" height="6" rx="3" transform="rotate(-45 79 84.6022)" fill="black"/>
<path d="M122.656 38.3746C123.488 39.2035 123.955 40.3277 123.955 41.5C123.955 43.7543 124.852 45.9163 126.451 47.5104C128.049 49.1045 130.217 50 132.477 50C134.738 50 136.905 49.1045 138.504 47.5104C140.102 45.9163 141 43.7543 141 41.5C141 40.3733 140.084 39.46 138.955 39.46C137.825 39.46 136.909 40.3733 136.909 41.5C136.909 42.6723 136.442 43.7965 135.611 44.6254C134.78 45.4543 133.653 45.92 132.477 45.92C131.302 45.92 130.175 45.4543 129.344 44.6254C128.512 43.7965 128.045 42.6723 128.045 41.5C128.045 39.2457 127.148 37.0837 125.549 35.4896C123.951 33.8955 121.783 33 119.523 33C117.262 33 115.095 33.8955 113.496 35.4896C111.898 37.0836 111 39.2457 111 41.5C111 42.6267 111.916 43.54 113.045 43.54C114.175 43.54 115.091 42.6267 115.091 41.5C115.091 40.3277 115.558 39.2035 116.389 38.3746C117.22 37.5457 118.347 37.08 119.523 37.08C120.698 37.08 121.825 37.5457 122.656 38.3746Z" fill="black"/>
</g>
</svg>
