<svg width="190" height="190" viewBox="0 0 190 190" fill="none" xmlns="http://www.w3.org/2000/svg">
<g>
<rect x="-5" y="90" width="57" height="10" rx="5" fill="black"/>
<rect x="41" y="98.4025" width="40.7902" height="10" rx="5" transform="rotate(-75 41 98.4025)" fill="black"/>
<rect x="129" y="128.507" width="40.7902" height="10" rx="5" transform="rotate(-75 129 128.507)" fill="black"/>
<rect x="67.6309" y="131.226" width="71.9842" height="10" rx="5" transform="rotate(-105 67.6309 131.226)" fill="black"/>
<rect x="65" y="128.638" width="72.0736" height="10" rx="5" transform="rotate(-75 65 128.638)" fill="black"/>
<rect x="99.6309" y="131.226" width="71.9842" height="10" rx="5" transform="rotate(-105 99.6309 131.226)" fill="black"/>
<rect x="97" y="128.638" width="72.0942" height="10" rx="5" transform="rotate(-75 97 128.638)" fill="black"/>
<rect x="131.633" y="131.233" width="71.9912" height="10" rx="5" transform="rotate(-105 131.633 131.233)" fill="black"/>
<rect x="139" y="90" width="56" height="10" rx="5" fill="black"/>
</g>
</svg>
