<svg width="190" height="190" viewBox="0 0 190 190" fill="none" xmlns="http://www.w3.org/2000/svg">
<g>
<rect x="100" y="-5" width="60" height="10" rx="5" transform="rotate(90 100 -5)" fill="black"/>
<rect x="100" y="135" width="60" height="10" rx="5" transform="rotate(90 100 135)" fill="black"/>
<circle cx="95" cy="95" r="40" stroke="black" stroke-width="10"/>
<rect x="120" y="42" width="20" height="6" rx="2" fill="black"/>
<rect x="127" y="55" width="20" height="6" rx="2" transform="rotate(-90 127 55)" fill="black"/>
<path d="M90.7649 90.2715C91.8177 91.393 92.4091 92.914 92.4091 94.5C92.4091 97.55 93.5465 100.475 95.571 102.632C97.5955 104.788 100.341 106 103.205 106C106.068 106 108.814 104.788 110.838 102.632C112.863 100.475 114 97.55 114 94.5C114 92.9757 112.84 91.74 111.409 91.74C109.978 91.74 108.818 92.9757 108.818 94.5C108.818 96.086 108.227 97.607 107.174 98.7285C106.121 99.85 104.693 100.48 103.205 100.48C101.716 100.48 100.288 99.85 99.2351 98.7285C98.1823 97.607 97.5909 96.086 97.5909 94.5C97.5909 91.45 96.4535 88.5249 94.429 86.3683C92.4045 84.2116 89.6586 83 86.7955 83C83.9323 83 81.1865 84.2116 79.1619 86.3683C77.1374 88.5249 76 91.45 76 94.5C76 96.0243 77.16 97.26 78.5909 97.26C80.0218 97.26 81.1818 96.0243 81.1818 94.5C81.1818 92.914 81.7733 91.393 82.826 90.2715C83.8788 89.15 85.3066 88.52 86.7955 88.52C88.2843 88.52 89.7121 89.15 90.7649 90.2715Z" fill="black"/>
</g>
</svg>
